<svg xmlns="http://www.w3.org/2000/svg" width="160" height="160" viewBox="0 0 160 160" fill="none">
  <mask id="mask0_3046_129205" style="mask-type:alpha" maskUnits="userSpaceOnUse" x="13" y="13" width="134" height="134">
    <circle cx="80.0002" cy="80.0002" r="66.6667" fill="#D9D9D9"/>
  </mask>
  <g mask="url(#mask0_3046_129205)">
    <rect x="13.3335" y="13.3335" width="133.333" height="133.333" fill="#DD2033"/>
    <path d="M86.5795 22.2305L81.4415 28.6093L73.65 27.5535L77.7502 34.4776L74.1947 41.9181L82.0261 39.2236L87.461 45.4728L88.1022 37.2514L95.115 33.3051L87.8395 30.3237L86.5795 22.2305Z" fill="#F1B434"/>
    <path d="M50.3705 49.6296L44.2986 63.3637L30 65.1911L40.5463 75.5071L37.7806 90.3703L50.3704 81.8827L62.9602 90.3703L60.1945 75.5071L70.7407 65.1911L56.4422 63.3637L50.3705 49.6296Z" fill="#F1B434"/>
    <path d="M94.3825 58.1014L95.6427 50.0081L100.781 56.387L108.572 55.3312L104.472 62.2553L108.027 69.6958L100.196 67.0013L94.761 73.2505L94.1199 65.0291L87.107 61.0828L94.3825 58.1014Z" fill="#F1B434"/>
    <path d="M94.8149 77.4073L91.5029 84.8986L83.7037 85.8953L89.4562 91.5222L87.9477 99.6295L94.8148 94.9998L101.682 99.6295L100.173 91.5222L105.926 85.8953L98.1267 84.8986L94.8149 77.4073Z" fill="#F1B434"/>
    <path d="M74.0341 106.387L79.1721 100.008L80.4321 108.101L87.7076 111.083L80.6948 115.029L80.0536 123.251L74.6187 117.001L66.7873 119.696L70.3428 112.255L66.2426 105.331L74.0341 106.387Z" fill="#F1B434"/>
  </g>
</svg>