<svg xmlns="http://www.w3.org/2000/svg" width="160" height="160" viewBox="0 0 160 160" fill="none">
  <mask id="mask0_3046_129206" style="mask-type:alpha" maskUnits="userSpaceOnUse" x="13" y="13" width="134" height="134">
    <circle cx="80.0002" cy="79.9998" r="66.6667" transform="rotate(-90 80.0002 79.9998)" fill="#D9D9D9"/>
  </mask>
  <g mask="url(#mask0_3046_129206)">
    <rect x="13.3335" y="13.3335" width="133.333" height="133.333" fill="#004692"/>
    <path d="M79.9387 29.1973L76.6268 36.6886L68.8275 37.6853L74.5801 43.3123L73.0715 51.4195L79.9387 46.7899L86.8058 51.4195L85.2973 43.3123L91.0498 37.6853L83.2505 36.6886L79.9387 29.1973Z" fill="#F1B434"/>
    <path d="M51.8282 40.8407L48.5162 48.3321L40.717 49.3288L46.4695 54.9557L44.961 63.063L51.8281 58.4333L58.6953 63.063L57.1867 54.9557L62.9392 49.3288L55.14 48.3321L51.8282 40.8407Z" fill="#F1B434"/>
    <path d="M40.1854 68.9504L36.8734 76.4417L29.0742 77.4385L34.8267 83.0654L33.3182 91.1726L40.1853 86.543L47.0525 91.1726L45.5439 83.0654L51.2964 77.4385L43.4972 76.4417L40.1854 68.9504Z" fill="#F1B434"/>
    <path d="M51.8282 97.06L48.5162 104.551L40.717 105.548L46.4695 111.175L44.961 119.282L51.8281 114.653L58.6953 119.282L57.1867 111.175L62.9392 105.548L55.14 104.551L51.8282 97.06Z" fill="#F1B434"/>
    <path d="M79.9387 108.703L76.6268 116.195L68.8275 117.192L74.5801 122.818L73.0715 130.926L79.9387 126.296L86.8058 130.926L85.2973 122.818L91.0498 117.192L83.2505 116.195L79.9387 108.703Z" fill="#F1B434"/>
    <path d="M108.047 97.06L104.736 104.551L96.9363 105.548L102.689 111.175L101.18 119.282L108.047 114.653L114.915 119.282L113.406 111.175L119.158 105.548L111.359 104.551L108.047 97.06Z" fill="#F1B434"/>
    <path d="M119.691 68.9504L116.379 76.4417L108.58 77.4385L114.332 83.0654L112.824 91.1726L119.691 86.543L126.558 91.1726L125.05 83.0654L130.802 77.4385L123.003 76.4417L119.691 68.9504Z" fill="#F1B434"/>
    <path d="M108.047 40.8407L104.736 48.3321L96.9363 49.3288L102.689 54.9557L101.18 63.063L108.047 58.4333L114.915 63.063L113.406 54.9557L119.159 49.3288L111.359 48.3321L108.047 40.8407Z" fill="#F1B434"/>
  </g>
</svg>