<svg width="160" height="160" viewBox="0 0 160 160" fill="none" xmlns="http://www.w3.org/2000/svg">
<mask id="mask0_3046_129207" style="mask-type:alpha" maskUnits="userSpaceOnUse" x="13" y="13" width="134" height="134">
<circle cx="80.0002" cy="80.0002" r="66.6667" fill="#D9D9D9"/>
</mask>
<g mask="url(#mask0_3046_129207)">
<rect x="13.3335" y="13.3335" width="133.333" height="133.333" fill="#004692"/>
<path d="M92.5708 74.4526L88.6424 78.381L135.783 125.521L139.711 121.593L92.5708 74.4526Z" fill="#F5F7F8"/>
<path d="M82.0951 84.9283L75.5479 91.4756L122.688 138.616L129.236 132.069L82.0951 84.9283Z" fill="#F5F7F8"/>
<path d="M82.0951 84.9283L88.6424 78.381L135.783 125.521L129.236 132.069L82.0951 84.9283Z" fill="#DD2033"/>
<path d="M84.1562 91.4678L80.2279 87.5394L33.0874 134.68L37.0158 138.608L84.1562 91.4678Z" fill="#F5F7F8"/>
<path d="M73.6806 80.9921L67.1333 74.4448L19.9929 121.585L26.5401 128.133L73.6806 80.9921Z" fill="#F5F7F8"/>
<path d="M73.6806 80.9921L80.2279 87.5394L33.0874 134.68L26.5401 128.133L73.6806 80.9921Z" fill="#DD2033"/>
<path d="M68.9927 88.6084L72.9211 84.68L25.7806 37.5396L21.8522 41.4679L68.9927 88.6084Z" fill="#F5F7F8"/>
<path d="M79.4683 78.1327L86.0156 71.5855L38.8752 24.445L32.3279 30.9923L79.4683 78.1327Z" fill="#F5F7F8"/>
<path d="M79.4683 78.1327L72.9211 84.68L25.7806 37.5396L32.3279 30.9923L79.4683 78.1327Z" fill="#DD2033"/>
<path d="M73.7046 71.5928L77.633 75.5211L124.773 28.3807L120.845 24.4523L73.7046 71.5928Z" fill="#F5F7F8"/>
<path d="M84.1802 82.0684L90.7275 88.6157L137.868 41.4753L131.321 34.928L84.1802 82.0684Z" fill="#F5F7F8"/>
<path d="M84.1802 82.0684L77.633 75.5211L124.773 28.3807L131.321 34.928L84.1802 82.0684Z" fill="#DD2033"/>
<path fill-rule="evenodd" clip-rule="evenodd" d="M68.8891 146.667H59.6298L59.6298 100.371H13.3335V91.1113H59.6298L59.6298 68.889L13.3335 68.889V59.6298L59.6298 59.6298L59.6298 13.3335H68.8891L68.8891 59.6298H91.1113L91.1113 13.3335H100.371L100.371 59.6298L146.667 59.6298V68.8891L100.371 68.889V91.1113L146.667 91.1113V100.371L100.371 100.371L100.371 146.667H91.1113L91.1113 100.371H68.8891L68.8891 146.667ZM91.1113 68.889H68.8891L68.8891 91.1113H91.1113V68.889Z" fill="#F5F7F8"/>
<path d="M68.8891 146.667H91.1113L91.1113 91.1113H146.667V68.8891L91.1113 68.889L91.1113 13.3335H68.8891L68.8891 68.889L13.3335 68.889V91.1113H68.8891L68.8891 146.667Z" fill="#DD2033"/>
</g>
</svg>
