<svg xmlns="http://www.w3.org/2000/svg" width="160" height="160" viewBox="0 0 160 160" fill="none">
  <mask id="mask0_3046_129211" style="mask-type:alpha" maskUnits="userSpaceOnUse" x="13" y="13" width="134" height="134">
    <circle cx="80.0002" cy="80.0002" r="66.6667" fill="#D9D9D9"/>
  </mask>
  <g mask="url(#mask0_3046_129211)">
    <rect x="13.3335" y="13.3335" width="133.333" height="133.333" fill="#F5F7F8"/>
    <path fill-rule="evenodd" clip-rule="evenodd" d="M104.074 80.008C104.074 93.2869 93.3007 104.074 79.9916 104.074C66.6825 104.074 55.9258 93.2869 55.9258 80.008C55.9258 66.7292 66.699 55.9258 80.0081 55.9258C93.3172 55.9258 104.074 66.7292 104.074 80.008Z" fill="#DD2033"/>
    <path fill-rule="evenodd" clip-rule="evenodd" d="M56.2739 75.7628C57.0363 81.8285 58.1467 88.5827 67.5775 89.2712C71.1078 89.4843 77.9861 88.4515 80.3396 78.9104C83.4556 69.7627 92.7703 67.1398 99.1183 72.0906C102.748 74.4185 103.742 78.1071 103.975 80.894C103.693 89.7466 98.5216 97.4516 91.9085 100.894C84.2843 105.37 73.7431 105.468 64.5113 98.6811C60.3511 94.8286 54.5336 87.6974 56.2739 75.7628Z" fill="#004692"/>
    <path d="M49.5127 31.5498L31.1803 49.8822L35.1087 53.8106L53.4411 35.4782L49.5127 31.5498Z" fill="#31373D"/>
    <path d="M31.1802 110.117L49.5126 128.45L53.4409 124.521L35.1085 106.189L31.1802 110.117Z" fill="#31373D"/>
    <path d="M103.2 100.951L111.057 93.0945L114.985 97.0229L107.129 104.88L103.2 100.951Z" fill="#31373D"/>
    <path d="M117.604 99.6417L109.747 107.498L113.676 111.427L121.533 103.57L117.604 99.6417Z" fill="#31373D"/>
    <path d="M116.295 114.046L124.152 106.189L128.08 110.117L120.223 117.974L116.295 114.046Z" fill="#31373D"/>
    <path d="M100.581 103.57L92.7246 111.427L96.6529 115.355L104.51 107.499L100.581 103.57Z" fill="#31373D"/>
    <path d="M99.2718 117.974L107.129 110.117L111.057 114.046L103.2 121.903L99.2718 117.974Z" fill="#31373D"/>
    <path d="M113.676 116.665L105.819 124.521L109.747 128.45L117.604 120.593L113.676 116.665Z" fill="#31373D"/>
    <path d="M45.5842 111.427L37.7274 103.57L41.6558 99.6418L49.5125 107.499L45.5842 111.427Z" fill="#31373D"/>
    <path d="M52.1315 110.117L48.2031 114.046L56.0598 121.903L59.9882 117.974L52.1315 110.117Z" fill="#31373D"/>
    <path d="M37.7276 56.4296L56.06 38.0972L59.9884 42.0256L41.656 60.358L37.7276 56.4296Z" fill="#31373D"/>
    <path d="M99.2719 42.0256L117.604 60.358L121.533 56.4296L103.2 38.0972L99.2719 42.0256Z" fill="#31373D"/>
    <path d="M44.2749 62.9768L62.6073 44.6444L66.5356 48.5728L48.2032 66.9052L44.2749 62.9768Z" fill="#31373D"/>
    <path d="M44.2747 97.0228L62.6071 115.355L66.5355 111.427L48.2031 93.0944L44.2747 97.0228Z" fill="#31373D"/>
    <path d="M113.676 43.3351L105.819 35.4783L109.748 31.5499L117.604 39.4067L113.676 43.3351Z" fill="#31373D"/>
    <path d="M92.7246 48.573L100.581 56.4297L104.51 52.5013L96.653 44.6446L92.7246 48.573Z" fill="#31373D"/>
    <path d="M124.152 53.8107L116.295 45.954L120.223 42.0256L128.08 49.8823L124.152 53.8107Z" fill="#31373D"/>
    <path d="M103.2 59.0486L111.057 66.9054L114.985 62.977L107.129 55.1202L103.2 59.0486Z" fill="#31373D"/>
  </g>
</svg>