<svg width="160" height="160" viewBox="0 0 160 160" fill="none" xmlns="http://www.w3.org/2000/svg">
<mask id="mask0_3046_129212" style="mask-type:alpha" maskUnits="userSpaceOnUse" x="13" y="13" width="134" height="134">
<circle cx="80.0002" cy="80.0002" r="66.6667" fill="#D9D9D9"/>
</mask>
<g mask="url(#mask0_3046_129212)">
<rect x="13.3335" y="13.3335" width="133.333" height="133.333" fill="#004692"/>
<path d="M111.481 39.2593L108.721 45.502L102.222 46.3327L107.016 51.0218L105.759 57.7778L111.481 53.9198L117.204 57.7778L115.947 51.0218L120.741 46.3327L114.241 45.502L111.481 39.2593Z" fill="#DD2033"/>
<path d="M93.9066 67.7243L96.6665 61.4815L99.4264 67.7243L105.926 68.5549L101.132 73.244L102.389 80L96.6665 76.142L90.9438 80L92.201 73.244L87.4072 68.5549L93.9066 67.7243Z" fill="#DD2033"/>
<path d="M107.617 97.9991L111.481 89.2593L115.345 97.9991L124.444 99.162L117.733 105.727L119.493 115.185L111.481 109.784L103.47 115.185L105.23 105.727L98.5183 99.162L107.617 97.9991Z" fill="#DD2033"/>
<path d="M125.388 64.0206L128.148 57.7778L130.908 64.0206L137.407 64.8512L132.613 69.5403L133.871 76.2963L128.148 72.4383L122.425 76.2963L123.682 69.5403L118.889 64.8512L125.388 64.0206Z" fill="#DD2033"/>
<mask id="mask1_3046_129212" style="mask-type:alpha" maskUnits="userSpaceOnUse" x="13" y="13" width="67" height="67">
<path d="M13.3335 80L13.3335 63.3333C13.3335 35.7191 35.7193 13.3333 63.3335 13.3333L80.0002 13.3333L80.0002 80L13.3335 80Z" fill="#002F6C"/>
</mask>
<g mask="url(#mask1_3046_129212)">
<rect x="13.333" y="13.3335" width="66.6667" height="66.6667" fill="#004692"/>
<path d="M36.5229 19.1372L32.5946 23.0656L87.2723 77.7434L91.2007 73.815L36.5229 19.1372Z" fill="#F5F7F8"/>
<path d="M26.0473 29.6129L19.5 36.1601L74.1778 90.8379L80.7251 84.2906L26.0473 29.6129Z" fill="#F5F7F8"/>
<path d="M26.0473 29.6129L32.5946 23.0656L87.2723 77.7434L80.7251 84.2906L26.0473 29.6129Z" fill="#DD2033"/>
<path d="M80.0001 35.5557V44.8149L44.8149 44.8149L44.8149 80.0002H35.5557V35.5557H80.0001Z" fill="#F5F7F8"/>
<path d="M80.0002 9.62988V18.8891L22.5928 18.8891L22.5927 80.0003H13.3335V9.62988H80.0002Z" fill="#F5F7F8"/>
<path fill-rule="evenodd" clip-rule="evenodd" d="M18.8892 80.0003H35.5558L35.5558 35.5558L80.0003 35.5558V18.8892H35.5558H18.8892L18.8892 35.5558L18.8892 80.0003Z" fill="#DD2033"/>
</g>
</g>
</svg>
