<svg xmlns="http://www.w3.org/2000/svg" width="160" height="160" viewBox="0 0 160 160" fill="none">
  <mask id="mask0_3046_129209" style="mask-type:alpha" maskUnits="userSpaceOnUse" x="13" y="13" width="134" height="134">
    <circle cx="79.9999" cy="79.9998" r="66.6667" transform="rotate(-180 79.9999 79.9998)" fill="#D9D9D9"/>
  </mask>
  <g mask="url(#mask0_3046_129209)">
    <rect x="146.667" y="13.3335" width="70.3703" height="133.333" transform="rotate(90 146.667 13.3335)" fill="#DD2033"/>
    <rect x="146.667" y="83.7036" width="62.9629" height="133.333" transform="rotate(90 146.667 83.7036)" fill="#F5F7F8"/>
    <path d="M56.6346 67.4413C58.6074 69.0174 60.7644 70.2003 63.007 70.9992C57.0839 72.2899 50.6507 70.9986 45.5455 66.9198C36.5512 59.734 35.0852 46.6174 42.271 37.6231C47.6783 30.855 56.4438 28.3497 64.2841 30.586C59.898 31.5876 55.8414 33.9952 52.8513 37.7379C45.6654 46.7322 47.3593 60.0308 56.6346 67.4413Z" fill="#F5F7F8"/>
    <path d="M80.7554 34.9944L82.9634 30.0002L85.1713 34.9944L90.3707 35.6589L86.5357 39.4102L87.5414 44.815L82.9633 41.7286L78.3852 44.815L79.3909 39.4102L75.5559 35.6589L80.7554 34.9944Z" fill="#F5F7F8"/>
    <path d="M65.9406 46.1055L68.1486 41.1113L70.3564 46.1055L75.5559 46.7701L71.7209 50.5213L72.7266 55.9261L68.1485 52.8397L63.5704 55.9261L64.5761 50.5213L60.7411 46.7701L65.9406 46.1055Z" fill="#F5F7F8"/>
    <path d="M97.7782 41.1113L95.5702 46.1056L90.3707 46.7701L94.2057 50.5213L93.2 55.9262L97.7781 52.8397L102.356 55.9262L101.351 50.5213L105.186 46.7701L99.9861 46.1056L97.7782 41.1113Z" fill="#F5F7F8"/>
    <path d="M71.4961 62.7722L73.7041 57.778L75.912 62.7722L81.1115 63.4367L77.2765 67.188L78.2822 72.5928L73.7041 69.5064L69.126 72.5928L70.1317 67.188L66.2967 63.4367L71.4961 62.7722Z" fill="#F5F7F8"/>
    <path d="M92.2226 57.778L90.0147 62.7722L84.8152 63.4367L88.6502 67.188L87.6445 72.5928L92.2226 69.5064L96.8007 72.5928L95.795 67.188L99.63 63.4367L94.4305 62.7722L92.2226 57.778Z" fill="#F5F7F8"/>
  </g>
</svg>