<svg width="84" height="90" viewBox="0 0 84 90" fill="none" xmlns="http://www.w3.org/2000/svg">
<path d="M34.1533 5.69141C39.2189 2.98757 45.3375 3.07796 50.333 5.96191L71.6406 18.2646L72.1182 18.5508C76.9929 21.5858 79.9746 26.9298 79.9746 32.6982V57.3018C79.9746 63.0702 76.9929 68.4142 72.1182 71.4492L71.6406 71.7354L50.333 84.0381C45.3375 86.922 39.2189 87.0124 34.1533 84.3086L33.667 84.0381L12.3594 71.7354C7.20269 68.7581 4.02539 63.2562 4.02539 57.3018V32.6982L4.03516 32.1416C4.22622 26.4024 7.36371 21.1489 12.3594 18.2646L33.667 5.96191L34.1533 5.69141Z" fill="#3772FF" stroke="#E6E8EC" stroke-width="6.66667"/>
<path d="M56.9999 36.1095C56.7056 36.2619 56.3629 36.2912 56.0471 36.191C55.7312 36.0908 55.4681 35.8693 55.3155 35.5752C54.1224 33.2181 52.3164 31.2259 50.0874 29.808C49.9485 29.7204 49.8282 29.6062 49.7333 29.4721C49.6385 29.338 49.5711 29.1866 49.5348 29.0264C49.4985 28.8662 49.4942 28.7004 49.5219 28.5386C49.5497 28.3767 49.6091 28.2219 49.6967 28.083C49.7844 27.9441 49.8985 27.8238 50.0326 27.729C50.1667 27.6341 50.3182 27.5667 50.4783 27.5304C50.6385 27.4941 50.8043 27.4898 50.9661 27.5175C51.128 27.5453 51.2828 27.6047 51.4217 27.6923C54.0196 29.3557 56.129 31.6792 57.5342 34.4252C57.6866 34.7194 57.7159 35.0621 57.6157 35.378C57.5155 35.6938 57.294 35.9569 56.9999 36.1095ZM27.5796 36.2502C27.8086 36.2501 28.0331 36.1871 28.2288 36.068C28.4244 35.949 28.5836 35.7785 28.6889 35.5752C29.8821 33.2181 31.688 31.2259 33.9171 29.808C34.1976 29.631 34.3964 29.3499 34.4696 29.0264C34.5429 28.7029 34.4846 28.3635 34.3077 28.083C34.1307 27.8024 33.8496 27.6037 33.5261 27.5304C33.2026 27.4571 32.8632 27.5154 32.5827 27.6923C29.9849 29.3557 27.8755 31.6792 26.4702 34.4252C26.3715 34.6157 26.3235 34.8284 26.3308 35.0428C26.3381 35.2572 26.4005 35.4661 26.5119 35.6495C26.6234 35.8328 26.7801 35.9843 26.9671 36.0896C27.1541 36.1948 27.365 36.2501 27.5796 36.2502ZM56.6577 52.4908C56.8791 52.8705 56.9965 53.302 56.998 53.7416C56.9995 54.1812 56.8851 54.6134 56.6663 54.9947C56.4474 55.3759 56.1319 55.6928 55.7516 55.9132C55.3712 56.1336 54.9395 56.2498 54.4999 56.2502H48.1249C47.838 57.663 47.0715 58.9333 45.9552 59.8456C44.8389 60.758 43.4416 61.2564 41.9999 61.2564C40.5582 61.2564 39.1608 60.758 38.0445 59.8456C36.9283 58.9333 36.1618 57.663 35.8749 56.2502H29.4999C29.0605 56.2493 28.6292 56.1327 28.2493 55.912C27.8693 55.6914 27.5543 55.3745 27.3358 54.9933C27.1173 54.6122 27.0032 54.1801 27.0048 53.7408C27.0065 53.3015 27.1239 52.8703 27.3452 52.4908C28.753 50.0611 29.4999 46.6064 29.4999 42.5002C29.4999 39.185 30.8168 36.0055 33.161 33.6613C35.5052 31.3171 38.6847 30.0002 41.9999 30.0002C45.3151 30.0002 48.4945 31.3171 50.8387 33.6613C53.1829 36.0055 54.4999 39.185 54.4999 42.5002C54.4999 46.6048 55.2467 50.0595 56.6577 52.4908ZM45.5342 56.2502H38.4655C38.7245 56.9805 39.2033 57.6127 39.8362 58.0597C40.4691 58.5068 41.225 58.7469 41.9999 58.7469C42.7748 58.7469 43.5306 58.5068 44.1635 58.0597C44.7964 57.6127 45.2753 56.9805 45.5342 56.2502Z" fill="white"/>
</svg>
