<svg width="84" height="90" viewBox="0 0 84 90" fill="none" xmlns="http://www.w3.org/2000/svg">
<path d="M34.1533 5.69141C39.2189 2.98757 45.3375 3.07796 50.333 5.96191L71.6406 18.2646L72.1182 18.5508C76.9929 21.5858 79.9746 26.9298 79.9746 32.6982V57.3018C79.9746 63.0702 76.9929 68.4142 72.1182 71.4492L71.6406 71.7354L50.333 84.0381C45.3375 86.922 39.2189 87.0124 34.1533 84.3086L33.667 84.0381L12.3594 71.7354C7.20269 68.7581 4.02539 63.2562 4.02539 57.3018V32.6982L4.03516 32.1416C4.22622 26.4024 7.36371 21.1489 12.3594 18.2646L33.667 5.96191L34.1533 5.69141Z" fill="#34BEC7" stroke="#E6E8EC" stroke-width="6.66667"/>
<path d="M54.5 30H29.5C28.837 30 28.2011 30.2634 27.7322 30.7322C27.2634 31.2011 27 31.837 27 32.5V57.5C27 58.163 27.2634 58.7989 27.7322 59.2678C28.2011 59.7366 28.837 60 29.5 60H54.5C55.163 60 55.7989 59.7366 56.2678 59.2678C56.7366 58.7989 57 58.163 57 57.5V32.5C57 31.837 56.7366 31.2011 56.2678 30.7322C55.7989 30.2634 55.163 30 54.5 30ZM44.8656 37.1344C44.6311 36.8998 44.4993 36.5817 44.4993 36.25C44.4993 35.9183 44.6311 35.6002 44.8656 35.3656C45.1002 35.1311 45.4183 34.9993 45.75 34.9993C46.0817 34.9993 46.3998 35.1311 46.6344 35.3656L48.25 36.9828L49.8656 35.3656C50.1002 35.1311 50.4183 34.9993 50.75 34.9993C51.0817 34.9993 51.3998 35.1311 51.6344 35.3656C51.8689 35.6002 52.0007 35.9183 52.0007 36.25C52.0007 36.5817 51.8689 36.8998 51.6344 37.1344L50.0172 38.75L51.6344 40.3656C51.7505 40.4818 51.8426 40.6196 51.9055 40.7714C51.9683 40.9231 52.0007 41.0858 52.0007 41.25C52.0007 41.4142 51.9683 41.5769 51.9055 41.7286C51.8426 41.8804 51.7505 42.0182 51.6344 42.1344C51.5182 42.2505 51.3804 42.3426 51.2286 42.4055C51.0769 42.4683 50.9142 42.5007 50.75 42.5007C50.5858 42.5007 50.4231 42.4683 50.2714 42.4055C50.1196 42.3426 49.9818 42.2505 49.8656 42.1344L48.25 40.5172L46.6344 42.1344C46.3998 42.3689 46.0817 42.5007 45.75 42.5007C45.4183 42.5007 45.1002 42.3689 44.8656 42.1344C44.6311 41.8998 44.4993 41.5817 44.4993 41.25C44.4993 40.9183 44.6311 40.6002 44.8656 40.3656L46.4828 38.75L44.8656 37.1344ZM39.5 52.5H37V55C37 55.3315 36.8683 55.6495 36.6339 55.8839C36.3995 56.1183 36.0815 56.25 35.75 56.25C35.4185 56.25 35.1005 56.1183 34.8661 55.8839C34.6317 55.6495 34.5 55.3315 34.5 55V52.5H32C31.6685 52.5 31.3505 52.3683 31.1161 52.1339C30.8817 51.8995 30.75 51.5815 30.75 51.25C30.75 50.9185 30.8817 50.6005 31.1161 50.3661C31.3505 50.1317 31.6685 50 32 50H34.5V47.5C34.5 47.1685 34.6317 46.8505 34.8661 46.6161C35.1005 46.3817 35.4185 46.25 35.75 46.25C36.0815 46.25 36.3995 46.3817 36.6339 46.6161C36.8683 46.8505 37 47.1685 37 47.5V50H39.5C39.8315 50 40.1495 50.1317 40.3839 50.3661C40.6183 50.6005 40.75 50.9185 40.75 51.25C40.75 51.5815 40.6183 51.8995 40.3839 52.1339C40.1495 52.3683 39.8315 52.5 39.5 52.5ZM39.5 40H32C31.6685 40 31.3505 39.8683 31.1161 39.6339C30.8817 39.3995 30.75 39.0815 30.75 38.75C30.75 38.4185 30.8817 38.1005 31.1161 37.8661C31.3505 37.6317 31.6685 37.5 32 37.5H39.5C39.8315 37.5 40.1495 37.6317 40.3839 37.8661C40.6183 38.1005 40.75 38.4185 40.75 38.75C40.75 39.0815 40.6183 39.3995 40.3839 39.6339C40.1495 39.8683 39.8315 40 39.5 40ZM52 55H44.5C44.1685 55 43.8505 54.8683 43.6161 54.6339C43.3817 54.3995 43.25 54.0815 43.25 53.75C43.25 53.4185 43.3817 53.1005 43.6161 52.8661C43.8505 52.6317 44.1685 52.5 44.5 52.5H52C52.3315 52.5 52.6495 52.6317 52.8839 52.8661C53.1183 53.1005 53.25 53.4185 53.25 53.75C53.25 54.0815 53.1183 54.3995 52.8839 54.6339C52.6495 54.8683 52.3315 55 52 55ZM52 50H44.5C44.1685 50 43.8505 49.8683 43.6161 49.6339C43.3817 49.3995 43.25 49.0815 43.25 48.75C43.25 48.4185 43.3817 48.1005 43.6161 47.8661C43.8505 47.6317 44.1685 47.5 44.5 47.5H52C52.3315 47.5 52.6495 47.6317 52.8839 47.8661C53.1183 48.1005 53.25 48.4185 53.25 48.75C53.25 49.0815 53.1183 49.3995 52.8839 49.6339C52.6495 49.8683 52.3315 50 52 50Z" fill="white"/>
</svg>
