<svg width="84" height="90" viewBox="0 0 84 90" fill="none" xmlns="http://www.w3.org/2000/svg">
<path d="M34.1533 5.69141C39.2189 2.98757 45.3375 3.07796 50.333 5.96191L71.6406 18.2646L72.1182 18.5508C76.9929 21.5858 79.9746 26.9298 79.9746 32.6982V57.3018C79.9746 63.0702 76.9929 68.4142 72.1182 71.4492L71.6406 71.7354L50.333 84.0381C45.3375 86.922 39.2189 87.0124 34.1533 84.3086L33.667 84.0381L12.3594 71.7354C7.20269 68.7581 4.02539 63.2562 4.02539 57.3018V32.6982L4.03516 32.1416C4.22622 26.4024 7.36371 21.1489 12.3594 18.2646L33.667 5.96191L34.1533 5.69141Z" fill="#EF466F" stroke="#E6E8EC" stroke-width="6.66667"/>
<path d="M55.75 31.25H28.25C27.587 31.25 26.9511 31.5134 26.4822 31.9822C26.0134 32.4511 25.75 33.087 25.75 33.75V56.25C25.75 56.913 26.0134 57.5489 26.4822 58.0178C26.9511 58.4866 27.587 58.75 28.25 58.75H55.75C56.413 58.75 57.0489 58.4866 57.5178 58.0178C57.9866 57.5489 58.25 56.913 58.25 56.25V33.75C58.25 33.087 57.9866 32.4511 57.5178 31.9822C57.0489 31.5134 56.413 31.25 55.75 31.25ZM53.25 55H30.75C30.4185 55 30.1005 54.8683 29.8661 54.6339C29.6317 54.3995 29.5 54.0815 29.5 53.75V36.25C29.5 35.9185 29.6317 35.6005 29.8661 35.3661C30.1005 35.1317 30.4185 35 30.75 35C31.0815 35 31.3995 35.1317 31.6339 35.3661C31.8683 35.6005 32 35.9185 32 36.25V48.2328L37.3656 42.8656C37.4817 42.7494 37.6196 42.6572 37.7713 42.5943C37.9231 42.5314 38.0857 42.499 38.25 42.499C38.4143 42.499 38.5769 42.5314 38.7287 42.5943C38.8804 42.6572 39.0183 42.7494 39.1344 42.8656L42 45.7328L48.9828 38.75H44.5C44.1685 38.75 43.8505 38.6183 43.6161 38.3839C43.3817 38.1495 43.25 37.8315 43.25 37.5C43.25 37.1685 43.3817 36.8505 43.6161 36.6161C43.8505 36.3817 44.1685 36.25 44.5 36.25H52C52.3315 36.25 52.6495 36.3817 52.8839 36.6161C53.1183 36.8505 53.25 37.1685 53.25 37.5V45C53.25 45.3315 53.1183 45.6495 52.8839 45.8839C52.6495 46.1183 52.3315 46.25 52 46.25C51.6685 46.25 51.3505 46.1183 51.1161 45.8839C50.8817 45.6495 50.75 45.3315 50.75 45V40.5172L42.8844 48.3844C42.7683 48.5006 42.6304 48.5928 42.4787 48.6557C42.3269 48.7186 42.1643 48.751 42 48.751C41.8357 48.751 41.6731 48.7186 41.5213 48.6557C41.3696 48.5928 41.2317 48.5006 41.1156 48.3844L38.25 45.5172L32 51.7672V52.5H53.25C53.5815 52.5 53.8995 52.6317 54.1339 52.8661C54.3683 53.1005 54.5 53.4185 54.5 53.75C54.5 54.0815 54.3683 54.3995 54.1339 54.6339C53.8995 54.8683 53.5815 55 53.25 55Z" fill="white"/>
</svg>