<svg width="84" height="90" viewBox="0 0 84 90" fill="none" xmlns="http://www.w3.org/2000/svg">
<path d="M34.1533 5.69141C39.2189 2.98757 45.3375 3.07796 50.333 5.96191L71.6406 18.2646L72.1182 18.5508C76.9929 21.5858 79.9746 26.9298 79.9746 32.6982V57.3018C79.9746 63.0702 76.9929 68.4142 72.1182 71.4492L71.6406 71.7354L50.333 84.0381C45.3375 86.922 39.2189 87.0124 34.1533 84.3086L33.667 84.0381L12.3594 71.7354C7.20269 68.7581 4.02539 63.2562 4.02539 57.3018V32.6982L4.03516 32.1416C4.22622 26.4024 7.36371 21.1489 12.3594 18.2646L33.667 5.96191L34.1533 5.69141Z" fill="#45B36B" stroke="#FCFCFD" stroke-width="6.66667"/>
<path d="M50.75 38.9953V38.125C50.75 34.2062 44.8391 31.25 37 31.25C29.1609 31.25 23.25 34.2062 23.25 38.125V44.375C23.25 47.6391 27.3516 50.2328 33.25 51.0094V51.875C33.25 55.7938 39.1609 58.75 47 58.75C54.8391 58.75 60.75 55.7938 60.75 51.875V45.625C60.75 42.3906 56.7781 39.7937 50.75 38.9953ZM30.75 47.9484C27.6891 47.0937 25.75 45.6859 25.75 44.375V42.1766C27.025 43.0797 28.7328 43.8078 30.75 44.2969V47.9484ZM43.25 44.2969C45.2672 43.8078 46.975 43.0797 48.25 42.1766V44.375C48.25 45.6859 46.3109 47.0937 43.25 47.9484V44.2969ZM40.75 55.4484C37.6891 54.5938 35.75 53.1859 35.75 51.875V51.2234C36.1609 51.2391 36.5766 51.25 37 51.25C37.6062 51.25 38.1984 51.2297 38.7797 51.1953C39.4254 51.4265 40.0831 51.6226 40.75 51.7828V55.4484ZM40.75 48.4766C39.5084 48.66 38.255 48.7514 37 48.75C35.745 48.7514 34.4916 48.66 33.25 48.4766V44.7594C34.4934 44.9214 35.7461 45.0018 37 45C38.2539 45.0018 39.5066 44.9214 40.75 44.7594V48.4766ZM50.75 55.9766C48.2633 56.3411 45.7367 56.3411 43.25 55.9766V52.25C44.493 52.4171 45.7458 52.5006 47 52.5C48.2539 52.5018 49.5066 52.4214 50.75 52.2594V55.9766ZM58.25 51.875C58.25 53.1859 56.3109 54.5938 53.25 55.4484V51.7969C55.2672 51.3078 56.975 50.5797 58.25 49.6766V51.875Z" fill="white"/>
</svg>
