<svg width="22" height="20" viewBox="0 0 22 20" fill="none" xmlns="http://www.w3.org/2000/svg">
<path d="M10.0821 1.12869C10.4295 0.323639 11.571 0.323639 11.9184 1.12869L14.0984 6.18058C14.2455 6.52146 14.5694 6.75279 14.9395 6.78139L20.5302 7.21339C21.4272 7.2827 21.7836 8.40876 21.0898 8.98155L16.8854 12.4528C16.5889 12.6977 16.459 13.0909 16.5514 13.4642L17.8453 18.6925C18.0581 19.5523 17.1306 20.2439 16.3673 19.7945L11.5076 16.9335C11.1944 16.7492 10.806 16.7492 10.4929 16.9335L5.63317 19.7945C4.86987 20.2439 3.94234 19.5523 4.15513 18.6925L5.44907 13.4642C5.54146 13.0909 5.41158 12.6977 5.11503 12.4528L0.910641 8.98155C0.216882 8.40876 0.573287 7.2827 1.47027 7.21339L7.06092 6.78139C7.43109 6.75279 7.75494 6.52146 7.90204 6.18057L10.0821 1.12869Z" fill="#E69C17"/>
</svg>
