<svg width="84" height="90" viewBox="0 0 84 90" fill="none" xmlns="http://www.w3.org/2000/svg">
<path d="M34.1533 5.69141C39.2189 2.98757 45.3375 3.07796 50.333 5.96191L71.6406 18.2646L72.1182 18.5508C76.9929 21.5858 79.9746 26.9298 79.9746 32.6982V57.3018C79.9746 63.0702 76.9929 68.4142 72.1182 71.4492L71.6406 71.7354L50.333 84.0381C45.3375 86.922 39.2189 87.0124 34.1533 84.3086L33.667 84.0381L12.3594 71.7354C7.20269 68.7581 4.02539 63.2562 4.02539 57.3018V32.6982L4.03516 32.1416C4.22622 26.4024 7.36371 21.1489 12.3594 18.2646L33.667 5.96191L34.1533 5.69141Z" fill="#E69C17" stroke="#FCFCFD" stroke-width="6.66667"/>
<path d="M28.6156 38.3844C28.4994 38.2683 28.4072 38.1304 28.3443 37.9787C28.2814 37.8269 28.249 37.6643 28.249 37.5C28.249 37.3357 28.2814 37.1731 28.3443 37.0213C28.4072 36.8696 28.4994 36.7317 28.6156 36.6156L33.6156 31.6156C33.7905 31.4406 34.0133 31.3214 34.2559 31.2731C34.4985 31.2248 34.75 31.2495 34.9785 31.3442C35.207 31.4389 35.4023 31.5993 35.5397 31.805C35.677 32.0108 35.7502 32.2526 35.75 32.5V36.25H54.5C54.8315 36.25 55.1495 36.3817 55.3839 36.6161C55.6183 36.8505 55.75 37.1685 55.75 37.5C55.75 37.8315 55.6183 38.1495 55.3839 38.3839C55.1495 38.6183 54.8315 38.75 54.5 38.75H35.75V42.5C35.7502 42.7474 35.677 42.9892 35.5397 43.195C35.4023 43.4007 35.207 43.5611 34.9785 43.6558C34.75 43.7505 34.4985 43.7752 34.2559 43.7269C34.0133 43.6786 33.7905 43.5594 33.6156 43.3844L28.6156 38.3844ZM55.3844 51.6156L50.3844 46.6156C50.2096 46.4406 49.9867 46.3214 49.7441 46.2731C49.5015 46.2248 49.25 46.2495 49.0215 46.3442C48.793 46.4389 48.5977 46.5993 48.4604 46.805C48.323 47.0108 48.2498 47.2526 48.25 47.5V51.25H29.5C29.1685 51.25 28.8505 51.3817 28.6161 51.6161C28.3817 51.8505 28.25 52.1685 28.25 52.5C28.25 52.8315 28.3817 53.1495 28.6161 53.3839C28.8505 53.6183 29.1685 53.75 29.5 53.75H48.25V57.5C48.2498 57.7474 48.323 57.9892 48.4604 58.195C48.5977 58.4007 48.793 58.5611 49.0215 58.6558C49.25 58.7505 49.5015 58.7752 49.7441 58.7269C49.9867 58.6786 50.2096 58.5594 50.3844 58.3844L55.3844 53.3844C55.5006 53.2683 55.5928 53.1304 55.6557 52.9787C55.7186 52.8269 55.751 52.6643 55.751 52.5C55.751 52.3357 55.7186 52.1731 55.6557 52.0213C55.5928 51.8696 55.5006 51.7317 55.3844 51.6156Z" fill="white"/>
</svg>
